<svg width="50" height="50" viewBox="0 0 50 50" fill="none" xmlns="http://www.w3.org/2000/svg">
<path d="M4.16669 35.46L4.16669 27.1699L4.21747 26.4124C4.87093 16.6636 11.8166 8.5666 21.179 6.63938C23.7011 6.12021 26.299 6.12021 28.8211 6.63938C38.1834 8.5666 45.1291 16.6636 45.7826 26.4124L45.8334 27.1699V35.46M32.4783 37.0857C32.1257 35.2298 32.1257 33.3217 32.4783 31.4657C33.0451 28.4825 35.2043 26.0797 38.0621 25.252L38.6682 25.0765C39.2983 24.894 39.95 24.8014 40.6048 24.8014C43.4925 24.8014 45.8333 27.1967 45.8333 30.1514V38.4001C45.8333 41.3547 43.4925 43.75 40.6048 43.75C39.95 43.75 39.2983 43.6574 38.6682 43.475L38.0621 43.2994C35.2043 42.4718 33.0451 40.0689 32.4783 37.0857ZM17.5217 37.0858C17.8743 35.2298 17.8743 33.3217 17.5217 31.4657C16.955 28.4825 14.7957 26.0797 11.9379 25.252L11.3318 25.0765C10.7017 24.894 10.05 24.8014 9.39519 24.8014C6.50757 24.8014 4.16668 27.1967 4.1667 30.1514L4.1667 38.4001C4.16668 41.3547 6.50756 43.75 9.39519 43.75C10.05 43.75 10.7017 43.6574 11.3318 43.475L11.9379 43.2994C14.7957 42.4718 16.955 40.0689 17.5217 37.0858Z" stroke="white" stroke-width="3.125"/>
<path d="M45.8333 38.4C45.8333 41.3547 43.4925 43.75 40.6048 43.75C39.95 43.75 39.2983 43.6574 38.6682 43.4749L38.0621 43.2994C35.2043 42.4717 33.0451 40.0688 32.4783 37.0857C32.1257 35.2297 32.1257 33.3216 32.4783 31.4656C33.0451 28.4825 35.2043 26.0796 38.0621 25.252L38.6682 25.0764C39.2983 24.8939 39.95 24.8014 40.6048 24.8014C43.4925 24.8014 45.8333 27.1967 45.8333 30.1513V38.4Z" stroke="#ED9902" stroke-width="3.125"/>
<path d="M4.1667 38.4C4.16668 41.3547 6.50756 43.75 9.39519 43.75C10.05 43.75 10.7017 43.6574 11.3318 43.4749L11.9379 43.2994C14.7957 42.4717 16.955 40.0688 17.5217 37.0857C17.8743 35.2297 17.8743 33.3216 17.5217 31.4656C16.955 28.4825 14.7957 26.0796 11.9379 25.252L11.3318 25.0764C10.7017 24.8939 10.05 24.8014 9.39519 24.8014C6.50757 24.8014 4.16668 27.1966 4.1667 30.1513L4.1667 38.4Z" stroke="#ED9902" stroke-width="3.125"/>
</svg>
