<svg width="50" height="50" viewBox="0 0 50 50" fill="none" xmlns="http://www.w3.org/2000/svg">
<path d="M6.86877 10.9037C7.3384 8.90165 8.90165 7.3384 10.9037 6.86877V6.86877C12.6388 6.46178 14.4445 6.46178 16.1796 6.86877V6.86877C18.1817 7.3384 19.7449 8.90165 20.2146 10.9037V10.9037C20.6216 12.6388 20.6216 14.4445 20.2146 16.1796V16.1796C19.7449 18.1817 18.1817 19.7449 16.1796 20.2146V20.2146C14.4445 20.6216 12.6388 20.6216 10.9037 20.2146V20.2146C8.90166 19.7449 7.3384 18.1817 6.86877 16.1796V16.1796C6.46178 14.4445 6.46178 12.6388 6.86877 10.9037V10.9037Z" stroke="white" stroke-width="3.125"/>
<path d="M6.86877 33.8204C7.3384 31.8183 8.90165 30.2551 10.9037 29.7855V29.7855C12.6388 29.3785 14.4445 29.3785 16.1796 29.7855V29.7855C18.1817 30.2551 19.7449 31.8183 20.2146 33.8204V33.8204C20.6216 35.5555 20.6216 37.3612 20.2146 39.0963V39.0963C19.7449 41.0984 18.1817 42.6616 16.1796 43.1312V43.1312C14.4445 43.5382 12.6388 43.5382 10.9037 43.1312V43.1312C8.90166 42.6616 7.3384 41.0984 6.86877 39.0963V39.0963C6.46178 37.3612 6.46178 35.5555 6.86877 33.8204V33.8204Z" stroke="#ED9902" stroke-width="3.125"/>
<path d="M29.7854 10.9037C30.2551 8.90165 31.8183 7.3384 33.8204 6.86877V6.86877C35.5555 6.46178 37.3612 6.46178 39.0963 6.86877V6.86877C41.0984 7.3384 42.6616 8.90165 43.1312 10.9037V10.9037C43.5382 12.6388 43.5382 14.4445 43.1312 16.1796V16.1796C42.6616 18.1817 41.0984 19.7449 39.0963 20.2146V20.2146C37.3612 20.6216 35.5555 20.6216 33.8204 20.2146V20.2146C31.8183 19.7449 30.2551 18.1817 29.7854 16.1796V16.1796C29.3785 14.4445 29.3785 12.6388 29.7854 10.9037V10.9037Z" stroke="white" stroke-width="3.125"/>
<path d="M29.7854 33.8204C30.2551 31.8183 31.8183 30.2551 33.8204 29.7855V29.7855C35.5555 29.3785 37.3612 29.3785 39.0963 29.7855V29.7855C41.0984 30.2551 42.6616 31.8183 43.1312 33.8204V33.8204C43.5382 35.5555 43.5382 37.3612 43.1312 39.0963V39.0963C42.6616 41.0984 41.0984 42.6616 39.0963 43.1312V43.1312C37.3612 43.5382 35.5555 43.5382 33.8204 43.1312V43.1312C31.8183 42.6616 30.2551 41.0984 29.7854 39.0963V39.0963C29.3785 37.3612 29.3785 35.5555 29.7854 33.8204V33.8204Z" stroke="white" stroke-width="3.125"/>
</svg>
