<svg width="50" height="50" viewBox="0 0 50 50" fill="none" xmlns="http://www.w3.org/2000/svg">
<path d="M11.4584 18.75H7.29169" stroke="#ED9902" stroke-width="3.125" stroke-linecap="round"/>
<path d="M10.4166 31.25L8.33331 31.25" stroke="#ED9902" stroke-width="3.125" stroke-linecap="round"/>
<path d="M8.33335 25H4.16669" stroke="#ED9902" stroke-width="3.125" stroke-linecap="round"/>
<path d="M25.0852 26.5935C25.9481 26.5935 26.6477 25.894 26.6477 25.031C26.6477 24.1681 25.9481 23.4685 25.0852 23.4685V26.5935ZM19.3082 26.5935H25.0852V23.4685H19.3082V26.5935Z" fill="#ED9902"/>
<path d="M42.7899 19.7434L24.6602 10.0179C20.2974 7.6775 15.4556 12.1139 16.9402 17.0915L19.1303 24.4345C19.2464 24.8238 19.2462 25.2384 19.1297 25.6275L16.9516 32.9024C15.4622 37.877 20.2971 42.3189 24.6622 39.9862L42.7824 30.3028C46.8469 28.1307 46.8513 21.9221 42.7899 19.7434Z" stroke="white" stroke-width="3.125"/>
</svg>
