<svg width="50" height="50" viewBox="0 0 50 50" fill="none" xmlns="http://www.w3.org/2000/svg">
<path d="M28.6495 9.77768C28.6495 8.03831 27.3783 6.56007 25.6585 6.29959C25.222 6.23347 24.778 6.23347 24.3415 6.29959C22.6217 6.56006 21.3505 8.03832 21.3505 9.77771V12.2374C20.368 12.5179 19.432 12.9087 18.5568 13.3957L16.8168 11.6556C15.5868 10.4257 13.6427 10.2793 12.2424 11.3112C11.887 11.5731 11.5731 11.887 11.3112 12.2424C10.2793 13.6427 10.4257 15.5869 11.6556 16.8168L13.3957 18.5568C12.9087 19.432 12.5179 20.368 12.2374 21.3505H9.77771C8.03832 21.3505 6.56007 22.6217 6.29959 24.3415C6.23347 24.778 6.23347 25.222 6.29959 25.6585C6.56007 27.3783 8.03831 28.6495 9.77769 28.6495H12.2374C12.5179 29.632 12.9087 30.568 13.3957 31.4432L11.6556 33.1832C10.4257 34.4132 10.2793 36.3573 11.3112 37.7576C11.5731 38.113 11.887 38.4269 12.2425 38.6888C13.6427 39.7207 15.5868 39.5743 16.8168 38.3444L18.5568 36.6044C19.432 37.0913 20.368 37.4822 21.3505 37.7626V40.2223C21.3505 41.9617 22.6217 43.4399 24.3415 43.7004C24.778 43.7665 25.222 43.7665 25.6585 43.7004C27.3783 43.4399 28.6495 41.9617 28.6495 40.2223V37.7626C29.632 37.4822 30.568 37.0913 31.4432 36.6044L33.1832 38.3444C34.4131 39.5743 36.3573 39.7207 37.7576 38.6888C38.113 38.4269 38.4269 38.113 38.6888 37.7576C39.7207 36.3573 39.5743 34.4132 38.3444 33.1833L36.6044 31.4432C37.0913 30.5681 37.4822 29.6321 37.7626 28.6495H40.2223C41.9617 28.6495 43.4399 27.3783 43.7004 25.6585C43.7665 25.222 43.7665 24.778 43.7004 24.3415C43.4399 22.6217 41.9617 21.3505 40.2223 21.3505H37.7626C37.4822 20.368 37.0913 19.432 36.6044 18.5568L38.3444 16.8168C39.5743 15.5868 39.7207 13.6427 38.6888 12.2424C38.4269 11.887 38.113 11.5731 37.7576 11.3112C36.3573 10.2793 34.4132 10.4257 33.1832 11.6556L31.4432 13.3957C30.568 12.9087 29.632 12.5179 28.6495 12.2374V9.77768Z" stroke="#ED9902" stroke-width="3.125" stroke-linecap="round" stroke-linejoin="round"/>
<path d="M37.7576 38.6888C36.3573 39.7207 34.4131 39.5743 33.1832 38.3444L31.4432 36.6044C30.568 37.0913 29.632 37.4822 28.6495 37.7626V40.2223C28.6495 41.9617 27.3783 43.4399 25.6585 43.7004C25.222 43.7665 24.778 43.7665 24.3415 43.7004C22.6217 43.4399 21.3505 41.9617 21.3505 40.2223V37.7626C20.368 37.4822 19.432 37.0913 18.5568 36.6044L16.8168 38.3444C15.5868 39.5743 13.6427 39.7207 12.2425 38.6888C11.887 38.4269 11.5731 38.113 11.3112 37.7576C10.2793 36.3573 10.4257 34.4132 11.6556 33.1832L13.3957 31.4432C12.9087 30.568 12.5179 29.632 12.2374 28.6495H9.77769C8.03831 28.6495 6.56007 27.3783 6.29959 25.6585C6.23347 25.222 6.23347 24.778 6.29959 24.3415C6.56007 22.6217 8.03832 21.3505 9.77771 21.3505H12.2374C12.5179 20.368 12.9087 19.432 13.3957 18.5568L11.6556 16.8168C10.4257 15.5869 10.2793 13.6427 11.3112 12.2424C11.5731 11.887 11.887 11.5731 12.2424 11.3112C13.6427 10.2793 15.5868 10.4257 16.8168 11.6556L18.5568 13.3957C19.432 12.9087 20.368 12.5179 21.3505 12.2374V9.77771C21.3505 8.03832 22.6217 6.56006 24.3415 6.29959C24.778 6.23347 25.222 6.23347 25.6585 6.29959C27.3783 6.56007 28.6495 8.03831 28.6495 9.77768V12.2374C29.632 12.5179 30.568 12.9087 31.4432 13.3957L33.1832 11.6556C34.4132 10.4257 36.3573 10.2793 37.7576 11.3112" stroke="white" stroke-width="3.125" stroke-linecap="round" stroke-linejoin="round"/>
<path d="M19.7917 25C19.7917 22.1235 22.1235 19.7917 25 19.7917C27.8765 19.7917 30.2083 22.1235 30.2083 25C30.2083 27.8765 27.8765 30.2084 25 30.2084C22.1235 30.2084 19.7917 27.8765 19.7917 25Z" stroke="#ED9902" stroke-width="3.125"/>
</svg>
